<svg width="132" height="20" viewBox="0 0 132 20" fill="none" xmlns="http://www.w3.org/2000/svg">
<path d="M10.9101 0.80841L13.1545 5.35469C13.3105 5.67089 13.6123 5.88999 13.9614 5.94061L18.9801 6.66969C19.8593 6.7975 20.21 7.87722 19.5741 8.49675L15.9426 12.0355C15.6902 12.2816 15.5748 12.6364 15.6346 12.9837L16.4917 17.9806C16.642 18.8558 15.723 19.523 14.9368 19.1101L10.4482 16.7511C10.136 16.5872 9.76285 16.5872 9.45071 16.7511L4.96203 19.1101C4.17587 19.5234 3.25688 18.8558 3.40714 17.9806L4.26428 12.9837C4.32406 12.6364 4.20866 12.2816 3.95629 12.0355L0.324755 8.49675C-0.311148 7.87681 0.0395948 6.79709 0.918735 6.66969L5.93747 5.94061C6.28656 5.88999 6.58832 5.67089 6.74439 5.35469L8.98873 0.80841C9.3814 0.0121055 10.5171 0.0121055 10.9101 0.80841Z" fill="#FBA229"/>
<path d="M38.8089 0.80841L41.0533 5.35469C41.2093 5.67089 41.5111 5.88999 41.8602 5.94061L46.8789 6.66969C47.7581 6.7975 48.1088 7.87722 47.4729 8.49675L43.8414 12.0355C43.589 12.2816 43.4736 12.6364 43.5334 12.9837L44.3905 17.9806C44.5408 18.8558 43.6218 19.523 42.8356 19.1101L38.347 16.7511C38.0348 16.5872 37.6617 16.5872 37.3495 16.7511L32.8608 19.1101C32.0747 19.5234 31.1557 18.8558 31.3059 17.9806L32.1631 12.9837C32.2229 12.6364 32.1075 12.2816 31.8551 12.0355L28.2236 8.49675C27.5877 7.87681 27.9384 6.79709 28.8175 6.66969L33.8363 5.94061C34.1854 5.88999 34.4871 5.67089 34.6432 5.35469L36.8875 0.80841C37.2802 0.0121055 38.4159 0.0121055 38.8089 0.80841Z" fill="#FBA229"/>
<path d="M66.7078 0.80841L68.9521 5.35469C69.1082 5.67089 69.41 5.88999 69.7591 5.94061L74.7778 6.66969C75.6569 6.7975 76.0077 7.87722 75.3718 8.49675L71.7402 12.0355C71.4879 12.2816 71.3725 12.6364 71.4322 12.9837L72.2894 17.9806C72.4396 18.8558 71.5207 19.523 70.7345 19.1101L66.2458 16.7511C65.9337 16.5872 65.5605 16.5872 65.2484 16.7511L60.7597 19.1101C59.9735 19.5234 59.0546 18.8558 59.2048 17.9806L60.062 12.9837C60.1217 12.6364 60.0063 12.2816 59.754 12.0355L56.1224 8.49675C55.4865 7.87681 55.8373 6.79709 56.7164 6.66969L61.7351 5.94061C62.0842 5.88999 62.386 5.67089 62.5421 5.35469L64.7864 0.80841C65.1791 0.0121055 66.3147 0.0121055 66.7078 0.80841Z" fill="#FBA229"/>
<path d="M94.6067 0.80841L96.851 5.35469C97.0071 5.67089 97.3088 5.88999 97.6579 5.94061L102.677 6.66969C103.556 6.7975 103.907 7.87722 103.271 8.49675L99.6391 12.0355C99.3867 12.2816 99.2713 12.6364 99.3311 12.9837L100.188 17.9806C100.339 18.8558 99.4195 19.523 98.6334 19.1101L94.1447 16.7511C93.8325 16.5872 93.4594 16.5872 93.1472 16.7511L88.6586 19.1101C87.8724 19.5234 86.9534 18.8558 87.1037 17.9806L87.9608 12.9837C88.0206 12.6364 87.9052 12.2816 87.6528 12.0355L84.0213 8.49675C83.3854 7.87681 83.7361 6.79709 84.6153 6.66969L89.634 5.94061C89.9831 5.88999 90.2849 5.67089 90.4409 5.35469L92.6853 0.80841C93.0779 0.0121055 94.2136 0.0121055 94.6067 0.80841Z" fill="#FBA229"/>
<path d="M122.505 0.80841L124.75 5.35469C124.906 5.67089 125.208 5.88999 125.557 5.94061L130.575 6.66969C131.455 6.7975 131.805 7.87722 131.169 8.49675L127.538 12.0355C127.286 12.2816 127.17 12.6364 127.23 12.9837L128.087 17.9806C128.237 18.8558 127.318 19.523 126.532 19.1101L122.043 16.7511C121.731 16.5872 121.358 16.5872 121.046 16.7511L116.557 19.1101C115.771 19.5234 114.852 18.8558 115.002 17.9806L115.86 12.9837C115.919 12.6364 115.804 12.2816 115.552 12.0355L111.92 8.49675C111.284 7.87681 111.635 6.79709 112.514 6.66969L117.533 5.94061C117.882 5.88999 118.184 5.67089 118.34 5.35469L120.584 0.80841C120.977 0.0121055 122.112 0.0121055 122.505 0.80841Z" fill="#FBA229"/>
</svg>
